<?xml version="1.0" encoding="UTF-8"?>
<svg width="309px" height="309px" viewBox="0 0 309 309" version="1.1" xmlns="http://www.w3.org/2000/svg" xmlns:xlink="http://www.w3.org/1999/xlink">
    <!-- Generator: Sketch 62 (91390) - https://sketch.com -->
    <title>Group 4</title>
    <desc>Created with Sketch.</desc>
    <g id="Page-1" stroke="none" stroke-width="1" fill="none" fill-rule="evenodd">
        <g id="APO_Contacto" transform="translate(-231.000000, -491.000000)">
            <g id="Group-4" transform="translate(231.000000, 491.000000)">
                <circle id="Oval" fill="#FF5900" cx="154.5" cy="154.5" r="154.5"></circle>
                <g id="Group-7" transform="translate(73.000000, 71.000000)">
                    <path d="M57.8620764,87.2342264 L79.7167912,26.5445117 L86.0617083,26.5911841 L106.987117,87.5764909 L57.8620764,87.2342264 Z M142.7654,133.642178 L104.551694,26.7156439 L125.092563,26.8712187 L125.236765,8.60674157 L40.8301397,8 L40.685937,26.2644771 L61.2268052,26.4044944 L21.3948252,132.770959 L8.14420266,132.677615 L8,150.942092 L59.6085309,151.299914 L59.7527336,133.050994 L41.6953556,132.926534 L52.2381726,102.962835 L112.370683,103.382887 L122.448847,133.502161 L104.407492,133.377701 L104.263289,151.626621 L155.87182,152 L156,133.735523 L142.7654,133.642178 Z" id="Fill-4" fill="#FF5900"></path>
                    <path d="M153.906051,154.062909 L103.316053,153.68661 L103.45741,135.295017 L121.158412,135.42045 L111.263442,105.065698 L52.3176913,104.642362 L41.9829447,134.824644 L59.6839468,134.965756 L59.5425901,153.357349 L8.95259202,152.99673 L9.09394874,134.589457 L22.0830603,134.683532 L61.1289266,27.4854752 L41.009154,27.3443632 L41.1348044,8.93709119 L123.875602,9.54857638 L123.734246,27.9558484 L103.598767,27.7990573 L141.058296,135.561562 L154.047408,135.655637 L153.906051,154.062909 Z M147.403642,126.734225 L116.132395,36.7831858 L132.561187,36.8929396 L132.828194,0.752597153 L32.3078628,0 L32.0408557,36.1403424 L48.4696473,36.2657753 L15.8633648,125.76212 L0.26700713,125.652366 L0,161.792709 L68.3695317,162.29444 L68.6365388,126.154098 L54.3909231,126.044344 L58.6630372,113.548095 L104.792446,113.893036 L108.876084,126.452001 L94.6304683,126.342247 L94.3634612,162.498269 L162.732993,163 L163,126.859658 L147.403642,126.734225 Z" id="Fill-5" fill="#FFFFFF"></path>
                    <path d="M68.964775,80.4913354 L81.3261579,45.1478084 L93.1493803,80.687054 L68.964775,80.4913354 Z M84.6855838,26.0489297 L78.2276582,26 L56,89.6411825 L106,90 L84.6855838,26.0489297 Z" id="Fill-6" fill="#FFFFFF"></path>
                </g>
            </g>
        </g>
    </g>
</svg>